<?xml version="1.0" encoding="UTF-8"?> <!-- Generator: Adobe Illustrator 24.2.3, SVG Export Plug-In . SVG Version: 6.00 Build 0) --> <svg xmlns="http://www.w3.org/2000/svg" xmlns:xlink="http://www.w3.org/1999/xlink" version="1.1" id="Ebene_1" x="0px" y="0px" viewBox="0 0 103.3 23.5" style="enable-background:new 0 0 103.3 23.5;" xml:space="preserve"> <style type="text/css"> .st0{fill:#FFFFFF;} </style> <g id="Ebene_2_1_"> <g id="Ebene_1-2"> <g> <path class="st0" d="M72.9,13.1h7.7c0.4,0,0.8-0.3,0.8-0.8l0,0l0,0c0-0.4-0.4-0.8-0.8-0.8l0,0h-7.7c-0.4,0-0.8,0.4-0.8,0.8l0,0 C72.2,12.7,72.5,13.1,72.9,13.1z M67.9,9.1c0.7,0,1,0.4,1,1.2s-0.3,1.2-1,1.2h-7.3c-1.1,0-2.1-0.2-3.1-0.7l-3.2-1.6h2.9 c0.4,0,0.8,0,1.2-0.1C58.7,9,59,8.8,59.2,8.6s0.4-0.5,0.5-0.8s0.2-0.6,0.2-0.9V6c0-0.3-0.1-0.6-0.2-0.9c-0.1-0.3-0.3-0.5-0.5-0.8 c-0.2-0.2-0.5-0.4-0.8-0.5c-0.4-0.1-0.8-0.2-1.2-0.2h-7.9c-0.4,0-0.8,0.3-0.8,0.8c0,0.4,0.3,0.8,0.7,0.8l0,0h8 c0.3,0,0.6,0.1,0.8,0.3c0.2,0.2,0.3,0.6,0.3,0.9S58.2,7,58,7.3c-0.2,0.2-0.5,0.3-0.8,0.3h-5.3c-0.6,0-1,0.4-1,1l0,0 c0,0.4,0.2,0.7,0.5,0.9l5.7,2.9c0.9,0.5,2,0.7,3,0.7h7.6c0.7,0.1,1.5-0.1,2.1-0.6c0.5-0.5,0.7-1.1,0.7-1.8V9.8 c0.1-0.6-0.2-1.3-0.7-1.7c-0.6-0.4-1.3-0.6-2.1-0.6h-3.6c-0.7,0-1-0.4-1-1.2s0.3-1.2,1-1.2h16.6c0.4,0,0.8-0.4,0.8-0.8l0,0 c0-0.4-0.4-0.8-0.8-0.8H64.3c-1.8,0-2.7,0.8-2.7,2.3v0.9c0,1.5,0.9,2.2,2.8,2.2L67.9,9.1z M72.9,9.1h7.7c0.4,0,0.8-0.3,0.8-0.8 l0,0c0-0.4-0.3-0.8-0.8-0.8l0,0h-7.7c-0.4,0-0.8,0.3-0.8,0.8l0,0l0,0C72.2,8.8,72.5,9.1,72.9,9.1z M84.7,10.3 c0,0.2,0,0.3,0.1,0.5c0.1,0.1,0.2,0.3,0.3,0.4c0.1,0.1,0.3,0.2,0.4,0.2c0.2,0,0.3,0,0.5,0h5.4c0.4,0,0.8,0.3,0.8,0.8l0,0l0,0 c0,0.4-0.3,0.8-0.8,0.8h-5.5c-0.7,0-1.4-0.1-2-0.5c-0.5-0.4-0.8-1.1-0.8-1.7V4.5c0-0.4,0.4-0.8,0.8-0.8c0,0,0,0,0.1,0l0,0 c0.4,0,0.8,0.3,0.8,0.8l0,0L84.7,10.3z M101.7,12.9L101.7,12.9c-0.4,0.2-0.9,0.1-1.1-0.3l-4.9-7.8c-0.2-0.3-0.1-0.8,0.3-1l0,0 l0,0c0.3-0.2,0.8-0.1,1,0.2l5,8C102.2,12.3,102.1,12.8,101.7,12.9L101.7,12.9z M90.7,11.9L95.6,4c0.2-0.4,0.7-0.5,1.1-0.3l0,0 l0,0c0.4,0.2,0.5,0.7,0.3,1.1l-5,7.9c-0.2,0.4-0.7,0.5-1.1,0.3l0,0C90.5,12.7,90.4,12.2,90.7,11.9L90.7,11.9z M49.7,12.9 L49.7,12.9c-0.4,0.2-0.8,0.1-1.1-0.3l-5-7.8c-0.2-0.4,0-0.9,0.3-1.1l0,0l0,0c0.4-0.2,0.8-0.2,1.1,0.2l0,0l4.9,8 C50.2,12.4,50.1,12.8,49.7,12.9L49.7,12.9z M38.7,11.9l5-7.9c0.2-0.4,0.7-0.5,1.1-0.3l0,0l0,0c0.4,0.2,0.5,0.7,0.2,1.1l-4.9,7.9 c-0.2,0.4-0.7,0.5-1.1,0.3l0,0C38.7,12.8,38.5,12.3,38.7,11.9L38.7,11.9L38.7,11.9L38.7,11.9z"></path> <path class="st0" d="M16.2,4.9L15.5,5c-0.4,0-0.7,0.1-1.1,0.2c-1.7,0.5-3,1.7-3.8,3.3l-6.7,13c-0.7-0.3-1.3-0.8-1.7-1.5 c-0.4-0.9-0.4-1.9,0.1-2.8l8-13.8c0.8-1.4,2.7-1.9,4.1-1c0.4,0.3,0.8,0.6,1,1c0.1,0.1,0.4,0.6,0.6,1C16.1,4.5,16.2,4.7,16.2,4.9z M16.6,1.9C15-0.2,12-0.7,9.9,0.9c-0.5,0.4-1,0.9-1.3,1.5l-8,13.8c-1.3,2.3-0.6,5.2,1.7,6.5l0,0c0.6,0.3,1.2,0.5,1.8,0.6h0.1 c0.3,0,0.6-0.2,0.8-0.5l7.1-13.6C12.8,7.9,14,7,15.4,6.7l0,0c0.3-0.1,0.7-0.1,1-0.1c0.4,0,0.8,0,1.1,0.1c1.3,0.3,2.4,1.2,3,2.4 L28,23c0.2,0.3,0.5,0.5,0.8,0.5h0.1c2.6-0.3,4.5-2.6,4.3-5.2l0,0c-0.1-0.7-0.3-1.4-0.6-2l-8-13.9C23.8,0.9,22.2,0,20.4,0 c-0.6,0-1.3,0.1-1.9,0.3c-0.5,0.2-0.9,0.5-1.3,0.8l1,1.6c0.4-0.4,0.9-0.7,1.4-0.8c0.3-0.1,0.5-0.1,0.8-0.1c1.1,0,2,0.6,2.5,1.5 l8,13.8c0.5,0.9,0.5,2,0.1,2.9c-0.4,0.7-1,1.2-1.8,1.5l-7-13.1c-0.8-1.5-2.2-2.7-3.8-3.2l-0.6-1.1L16.6,1.9z M18.7,10.7 c-0.4-0.8-1.2-1.3-2.1-1.3l0,0c-0.9,0-1.7,0.5-2.1,1.3l-6,11.5c-0.2,0.5,0,1,0.5,1.3c0.1,0,0.2,0.1,0.3,0.1h14.5 c0.5,0,0.9-0.5,0.9-1l0,0c0-0.1,0-0.2-0.1-0.4L18.7,10.7z M10.8,21.6l5.3-10.1c0.1-0.2,0.3-0.3,0.5-0.3l0,0 c0.2,0,0.4,0.1,0.5,0.3l5.3,10.1H10.8z"></path> </g> </g> </g> <g> <path class="st0" d="M40.1,20.4h-0.5V16H38v-0.4h3.7V16h-1.6C40.1,16,40.1,20.4,40.1,20.4z"></path> <path class="st0" d="M44,20h2.6v0.4h-3v-4.8h3V16H44v1.6h2.3V18H44V20z"></path> <path class="st0" d="M52.6,19.7c-0.1,0.1-0.2,0.2-0.3,0.3c-0.1,0.1-0.2,0.2-0.4,0.3c-0.2,0.1-0.3,0.1-0.5,0.2 c-0.2,0-0.4,0.1-0.6,0.1c-0.4,0-0.7-0.1-1-0.2s-0.6-0.3-0.8-0.5s-0.4-0.5-0.5-0.8s-0.2-0.6-0.2-1s0.1-0.7,0.2-1 c0.1-0.3,0.3-0.6,0.5-0.8c0.2-0.2,0.5-0.4,0.8-0.5s0.6-0.2,1-0.2c0.2,0,0.3,0,0.5,0.1c0.2,0,0.3,0.1,0.5,0.2 c0.1,0.1,0.3,0.1,0.4,0.2c0.1,0.1,0.2,0.2,0.3,0.3l-0.4,0.3c0-0.1-0.1-0.2-0.2-0.2c-0.1-0.1-0.2-0.1-0.3-0.2s-0.2-0.1-0.4-0.1 c0-0.2-0.2-0.2-0.3-0.2c-0.3,0-0.6,0.1-0.8,0.2s-0.5,0.3-0.6,0.5c-0.2,0.2-0.3,0.4-0.4,0.7C49,17.7,49,17.9,49,18.2s0,0.5,0.1,0.8 s0.2,0.5,0.4,0.7s0.4,0.3,0.6,0.5c0.2,0.1,0.5,0.2,0.8,0.2s0.5-0.1,0.8-0.2c0.2-0.1,0.5-0.3,0.6-0.5H52.6z"></path> <path class="st0" d="M54.6,15.7h0.5v2.1h2.6v-2.1h0.5v4.8h-0.5v-2.3h-2.6v2.3h-0.5V15.7z"></path> <path class="st0" d="M64,19.7L64,19.7v-4.1h0.5v4.8h-0.6l-2.8-4.1l0,0v4.1h-0.5v-4.8h0.6L64,19.7z"></path> <path class="st0" d="M71.6,18.1c0,0.4-0.1,0.7-0.2,1s-0.3,0.6-0.5,0.8c-0.2,0.2-0.5,0.4-0.8,0.5s-0.6,0.2-1,0.2s-0.7-0.1-1-0.2 s-0.6-0.3-0.8-0.5c-0.2-0.2-0.4-0.5-0.5-0.8s-0.2-0.6-0.2-1s0.1-0.7,0.2-1s0.3-0.6,0.5-0.8c0.2-0.2,0.5-0.4,0.8-0.5s0.6-0.2,1-0.2 s0.7,0.1,1,0.2c0.3,0.1,0.6,0.3,0.8,0.5c0.2,0.2,0.4,0.5,0.5,0.8S71.6,17.7,71.6,18.1z M71.1,18.1c0-0.3,0-0.5-0.1-0.8 s-0.2-0.5-0.4-0.7c-0.2-0.2-0.4-0.3-0.6-0.5C69.7,16,69.4,16,69.1,16s-0.6,0.1-0.8,0.2c-0.2,0.1-0.5,0.3-0.6,0.5 c-0.2,0.2-0.3,0.4-0.4,0.7c-0.1,0.3-0.1,0.5-0.1,0.8s0,0.5,0.1,0.8s0.2,0.5,0.4,0.7c0.2,0.2,0.4,0.3,0.6,0.5 c0.2,0.1,0.5,0.2,0.8,0.2s0.6-0.1,0.8-0.2c0.2-0.1,0.5-0.3,0.6-0.5c0.2-0.2,0.3-0.4,0.4-0.7C71,18.6,71.1,18.3,71.1,18.1z"></path> <path class="st0" d="M74.2,20h2.2v0.4h-2.7v-4.8h0.5V20z"></path> <path class="st0" d="M82.8,18.1c0,0.4-0.1,0.7-0.2,1s-0.3,0.6-0.5,0.8c-0.2,0.2-0.5,0.4-0.8,0.5s-0.6,0.2-1,0.2s-0.7-0.1-1-0.2 s-0.6-0.3-0.8-0.5c-0.2-0.2-0.4-0.5-0.5-0.8s-0.2-0.6-0.2-1s0.1-0.7,0.2-1s0.3-0.6,0.5-0.8c0.2-0.2,0.5-0.4,0.8-0.5s0.6-0.2,1-0.2 s0.7,0.1,1,0.2c0.3,0.1,0.6,0.3,0.8,0.5c0.2,0.2,0.4,0.5,0.5,0.8C82.8,17.4,82.8,17.7,82.8,18.1z M82.3,18.1c0-0.3,0-0.5-0.1-0.8 s-0.2-0.5-0.4-0.7c-0.2-0.2-0.4-0.3-0.6-0.5C80.9,16,80.6,16,80.3,16c-0.3,0-0.6,0.1-0.8,0.2c-0.2,0.1-0.5,0.3-0.6,0.5 c-0.2,0.2-0.3,0.4-0.4,0.7c-0.1,0.3-0.1,0.5-0.1,0.8s0,0.5,0.1,0.8s0.2,0.5,0.4,0.7c0.2,0.2,0.4,0.3,0.6,0.5 c0.2,0.1,0.5,0.2,0.8,0.2s0.6-0.1,0.8-0.2c0.2-0.1,0.5-0.3,0.6-0.5c0.2-0.2,0.3-0.4,0.4-0.7C82.3,18.6,82.3,18.3,82.3,18.1z"></path> <path class="st0" d="M88.6,16.5c-0.2-0.2-0.4-0.3-0.6-0.4C87.8,16,87.5,16,87.2,16s-0.6,0.1-0.8,0.2c-0.2,0.1-0.5,0.3-0.6,0.5 c-0.2,0.2-0.3,0.4-0.4,0.7c-0.1,0.3-0.1,0.5-0.1,0.8s0,0.5,0.1,0.8s0.2,0.5,0.4,0.7c0.2,0.2,0.4,0.3,0.6,0.5 c0.2,0.1,0.5,0.2,0.8,0.2s0.5,0,0.7-0.1s0.4-0.1,0.5-0.2v-1.5h-1.1v-0.4H89v2.2c-0.3,0.2-0.5,0.3-0.8,0.4s-0.6,0.1-0.9,0.1 c-0.4,0-0.7-0.1-1-0.2s-0.6-0.3-0.8-0.5c-0.2-0.2-0.4-0.5-0.5-0.8s-0.2-0.6-0.2-1s0.1-0.7,0.2-1s0.3-0.6,0.5-0.8 c0.2-0.2,0.5-0.4,0.8-0.5c0.3-0.1,0.6-0.2,1-0.2s0.7,0.1,1,0.2c0.3,0.1,0.5,0.3,0.7,0.5L88.6,16.5z"></path> <path class="st0" d="M91.8,20.4h-0.5v-4.8h0.5V20.4z"></path> <path class="st0" d="M94.7,20h2.6v0.4h-3v-4.8h3V16h-2.5v1.6H97V18h-2.3V20z"></path> <path class="st0" d="M101.7,16.4c-0.1-0.1-0.2-0.3-0.4-0.3c-0.2-0.1-0.4-0.1-0.6-0.1c-0.1,0-0.2,0-0.4,0.1c-0.1,0-0.2,0.1-0.3,0.2 c-0.1,0.1-0.2,0.2-0.2,0.3c-0.1,0.1-0.1,0.2-0.1,0.4s0,0.3,0.1,0.4s0.1,0.2,0.2,0.3c0.1,0.1,0.2,0.1,0.3,0.2c0.1,0,0.3,0.1,0.4,0.1 c0.2,0.1,0.3,0.1,0.5,0.2s0.3,0.1,0.5,0.2c0.1,0.1,0.2,0.2,0.3,0.4c0.1,0.2,0.1,0.4,0.1,0.6s0,0.4-0.1,0.6s-0.2,0.3-0.4,0.4 c-0.1,0.1-0.3,0.2-0.5,0.2c-0.2,0.1-0.4,0.1-0.6,0.1c-0.1,0-0.3,0-0.4,0s-0.3-0.1-0.4-0.1c-0.1-0.1-0.3-0.1-0.4-0.2 s-0.2-0.2-0.3-0.3l0.4-0.3c0.1,0.2,0.2,0.3,0.4,0.4c0.2,0.1,0.4,0.2,0.7,0.2c0.1,0,0.2,0,0.4-0.1c0.1,0,0.2-0.1,0.3-0.2 c0.1-0.1,0.2-0.2,0.2-0.3c0.1-0.1,0.1-0.2,0.1-0.4c0-0.2,0-0.3-0.1-0.4s-0.2-0.2-0.3-0.3c-0.1-0.1-0.2-0.1-0.4-0.2 c-0.1,0-0.3-0.1-0.4-0.1c-0.2,0-0.3-0.1-0.5-0.2s-0.3-0.1-0.4-0.2s-0.2-0.2-0.3-0.4C99,17.5,99,17.3,99,17.1s0-0.4,0.1-0.6 s0.2-0.3,0.4-0.4c0.1-0.1,0.3-0.2,0.5-0.2s0.4-0.1,0.5-0.1c0.3,0,0.6,0.1,0.8,0.2C101.5,16.1,101.7,16.3,101.7,16.4L101.7,16.4z"></path> </g> </svg> 